<svg width="175" height="48" viewBox="0 0 175 48" fill="none" xmlns="http://www.w3.org/2000/svg">
<g clip-path="url(#clip0)">
<path d="M79.1351 27.1506H70.888C70.332 27.1506 69.8687 27.6139 69.8687 28.1699V40.4942C69.8687 41.0502 70.332 41.5135 70.888 41.5135H71.5366C72.0926 41.5135 72.5559 41.0502 72.5559 40.4942V36.139H78.3937C78.9497 36.139 79.413 35.6757 79.413 35.1197V34.5637C79.413 34.0077 78.9497 33.5444 78.3937 33.5444H72.5559V29.7452H79.1351C79.691 29.7452 80.1544 29.2818 80.1544 28.7259V28.1699C80.1544 27.6139 79.691 27.1506 79.1351 27.1506Z" fill="#86C440"/>
<path d="M93.1275 38.9189H86.363V28.1699C86.363 27.6139 85.8997 27.1506 85.3437 27.1506H84.6951C84.1391 27.1506 83.6758 27.6139 83.6758 28.1699V40.4942C83.6758 41.0502 84.1391 41.5135 84.6951 41.5135H93.1275C93.6835 41.5135 94.1468 41.0502 94.1468 40.4942V39.9382C94.1468 39.3822 93.6835 38.9189 93.1275 38.9189Z" fill="#86C440"/>
<path d="M103.135 26.9653C98.6872 26.9653 95.5366 30.0232 95.5366 34.3784C95.5366 38.6409 98.7799 41.7915 103.135 41.7915C107.583 41.7915 110.734 38.7336 110.734 34.3784C110.734 30.0232 107.583 26.9653 103.135 26.9653ZM108.046 34.2857C108.046 37.1583 106.008 39.1043 103.135 39.1043C100.262 39.1043 98.2239 37.1583 98.2239 34.2857C98.2239 31.5058 100.262 29.4672 103.135 29.4672C106.008 29.5599 108.046 31.5058 108.046 34.2857Z" fill="#86C440"/>
<path d="M119.629 27.1506H115.83C115.274 27.1506 114.811 27.6139 114.811 28.1699V40.4942C114.811 41.0502 115.274 41.5135 115.83 41.5135H116.478C117.034 41.5135 117.498 41.0502 117.498 40.4942V37.8069H119.814C120.185 37.8069 120.648 37.8069 121.112 37.7143L123.336 41.0502C123.521 41.3282 123.799 41.5135 124.17 41.5135H124.911C125.282 41.5135 125.652 41.3282 125.838 40.9575C126.023 40.5869 126.023 40.2162 125.745 39.9382L123.706 36.7876C125.282 35.861 126.116 34.2857 126.116 32.5251C126.023 29.2818 123.428 27.1506 119.629 27.1506ZM123.428 32.5251C123.428 34.471 121.482 35.2124 119.722 35.2124C118.98 35.2124 118.332 35.2124 117.498 35.2124V29.7452C118.239 29.7452 118.795 29.7452 119.629 29.7452C121.853 29.7452 123.428 30.8571 123.428 32.5251Z" fill="#86C440"/>
<path d="M133.529 27.1506H132.88C132.324 27.1506 131.861 27.6139 131.861 28.1699V40.4942C131.861 41.0502 132.324 41.5135 132.88 41.5135H133.529C134.085 41.5135 134.548 41.0502 134.548 40.4942V28.1699C134.548 27.6139 134.085 27.1506 133.529 27.1506Z" fill="#86C440"/>
<path d="M144 27.1506C144 27.1506 143.907 27.1506 144 27.1506H141.498C140.942 27.1506 140.479 27.6139 140.479 28.1699V40.9575C140.479 41.2355 140.664 41.5135 141.034 41.5135H141.312C141.683 41.5135 143.351 41.5135 144.092 41.5135C149.838 41.5135 153.081 38.9189 153.081 34.2857C153.081 29.7452 149.838 27.1506 144 27.1506ZM150.301 34.2857C150.301 37.3436 148.17 38.8263 144 38.9189C143.907 38.9189 143.444 38.9189 143.073 38.9189V29.7452H143.907C148.17 29.7452 150.301 31.3205 150.301 34.2857Z" fill="#86C440"/>
<path d="M169.575 40.0309L163.83 27.7993C163.645 27.4286 163.274 27.2433 162.903 27.2433H162.162C161.791 27.2433 161.421 27.4286 161.235 27.7993L155.49 40.1236C155.305 40.4016 155.398 40.7722 155.583 41.1429C155.768 41.4209 156.046 41.6062 156.417 41.6062H157.158C157.529 41.6062 157.899 41.3282 158.085 41.0502L159.197 38.641H165.869L166.981 41.0502C167.166 41.4209 167.537 41.6062 167.907 41.6062H168.648C169.019 41.6062 169.297 41.4209 169.482 41.1429C169.76 40.7722 169.76 40.4016 169.575 40.0309ZM162.533 31.2278L164.664 35.861H160.401L162.533 31.2278Z" fill="#86C440"/>
<path d="M58.9345 8.33977C58.1932 8.33977 57.4519 8.2471 56.8032 8.15444C52.2627 7.59846 48.8341 5.83784 45.4055 4.16988C42.4403 2.68726 39.6604 1.20463 35.9538 0.46332C34.8418 0.277992 33.5445 0.0926641 32.2472 0C31.5986 0 31.1353 0.463321 31.1353 1.11197V10.471C31.1353 11.027 31.5986 11.4903 32.1546 11.583C37.8071 11.861 41.5136 13.7143 45.4055 15.7529C48.7414 17.5135 52.2627 19.2741 56.7105 19.7375C57.3592 19.8301 58.1005 19.8301 58.8418 19.9228C59.3978 19.9228 59.9538 19.4595 59.9538 18.8108V9.35907C60.0465 8.80309 59.5831 8.33977 58.9345 8.33977Z" fill="#86C440"/>
<path d="M58.9346 22.332C58.1933 22.332 57.452 22.2394 56.8033 22.1467C52.2628 21.5907 48.8342 19.8301 45.4983 18.1621C42.533 16.6795 39.7531 15.1969 36.0466 14.4556C34.9346 14.2702 33.6373 14.0849 32.34 13.9922C31.6913 13.9922 31.228 14.4556 31.228 15.1042V24.4633C31.228 25.0193 31.6913 25.4826 32.2473 25.5753C37.8998 25.8533 41.6064 27.7065 45.4983 29.7451C48.8342 31.5058 52.3554 33.2664 56.8033 33.7297C57.452 33.8224 58.1933 33.8224 58.9346 33.915C59.4906 33.915 60.0466 33.4517 60.0466 32.8031V23.444C60.0466 22.888 59.5832 22.4247 58.9346 22.332Z" fill="#86C440"/>
<path d="M32.5254 39.8455C36.5099 40.0309 39.5679 41.1428 42.3478 42.4401C43.2744 42.9035 44.2937 42.1621 44.2937 41.2355V32.8031C44.2937 32.2471 44.0157 31.7838 43.5524 31.5984C41.2358 30.4865 38.9192 29.4672 36.0466 28.9112C35.0273 28.7258 33.9153 28.5405 32.7107 28.4479C31.8767 28.3552 31.2281 29.0038 31.2281 29.8378V38.5482C31.1354 39.1969 31.7841 39.8455 32.5254 39.8455Z" fill="#86C440"/>
<path d="M1.11197 8.33977C1.85328 8.33977 2.59459 8.2471 3.24324 8.15444C7.78378 7.59846 11.2124 5.83784 14.5483 4.16988C17.5135 2.68726 20.2934 1.20463 24 0.46332C25.112 0.277992 26.4093 0.0926641 27.7066 0C28.3552 0 28.8185 0.463321 28.8185 1.11197V10.471C28.8185 11.027 28.3552 11.4903 27.7992 11.583C22.1467 11.861 18.4402 13.7143 14.5483 15.7529C11.2124 17.5135 7.69112 19.2741 3.24324 19.7375C2.59459 19.8301 1.85328 19.8301 1.11197 19.9228C0.555985 19.9228 0 19.4595 0 18.8108V9.45174C0 8.80309 0.463321 8.33977 1.11197 8.33977Z" fill="#00A2AA"/>
<path d="M1.11217 22.4247C1.85348 22.4247 2.59479 22.3321 3.24344 22.2394C7.78398 21.6834 11.2126 19.9228 14.5485 18.2548C17.5137 16.7722 20.2936 15.2896 24.0002 14.5483C25.1122 14.363 26.4095 14.1776 27.7068 14.085C28.3554 14.085 28.8187 14.5483 28.8187 15.1969V24.556C28.8187 25.112 28.3554 25.5753 27.7994 25.668C22.1469 25.946 18.4404 27.7992 14.6411 29.7452C11.3052 31.5058 7.78398 33.2664 3.33611 33.7297C2.68746 33.8224 1.94614 33.8224 1.20483 33.9151C0.648846 33.9151 0.0928617 33.4518 0.0928617 32.8031V23.444C0.00019756 22.888 0.463518 22.4247 1.11217 22.4247Z" fill="#00A2AA"/>
<path d="M1.11197 36.5096C1.85328 36.5096 2.59459 36.417 3.24324 36.3243C7.78378 35.7683 11.2124 34.0077 14.5483 32.3397C17.5135 30.8571 20.2934 29.3745 24 28.6332C25.112 28.4479 26.4093 28.2625 27.7066 28.1699C28.3552 28.1699 28.8185 28.6332 28.8185 29.2818V38.6409C28.8185 39.1969 28.3552 39.6602 27.7992 39.7529C22.1467 40.0309 18.4402 41.8841 14.5483 43.9228C11.2124 45.6834 7.69112 47.444 3.24324 47.9073C2.59459 48 1.85328 48 1.11197 48.0926C0.555985 48.0926 0 47.6293 0 46.9807V37.6216C0 36.9729 0.463321 36.5096 1.11197 36.5096Z" fill="#00A2AA"/>
<path d="M81.1738 21.0347H73.668C73.4827 21.0347 73.2973 20.8494 73.2973 20.6641V18.4401C73.2973 18.2548 73.4827 18.0695 73.668 18.0695H79.8765C80.0618 18.0695 80.2471 17.8841 80.2471 17.6988V15.1969C80.2471 15.0116 80.0618 14.8262 79.8765 14.8262H73.668C73.4827 14.8262 73.2973 14.6409 73.2973 14.4556V12.5096C73.2973 12.3243 73.4827 12.139 73.668 12.139H81.1738C81.3591 12.139 81.5444 11.9536 81.5444 11.7683V8.98839C81.5444 8.80306 81.3591 8.61774 81.1738 8.61774H70.3321C70.1468 8.61774 69.9614 8.80306 69.9614 8.98839V23.9073C69.9614 24.0926 70.1468 24.278 70.3321 24.278H81.2664C81.4518 24.278 81.6371 24.0926 81.6371 23.9073V21.4054C81.6371 21.2201 81.4518 21.0347 81.1738 21.0347Z" fill="#00A2AA"/>
<path d="M112.772 8.98839C112.772 8.80306 112.587 8.61774 112.401 8.61774H109.9C109.714 8.61774 109.529 8.80306 109.529 8.98839V17.3282C109.529 19.8301 108.232 21.3127 106.008 21.3127C103.784 21.3127 102.486 19.8301 102.486 17.3282V8.98839C102.486 8.80306 102.301 8.61774 102.116 8.61774H99.6138C99.4285 8.61774 99.2432 8.80306 99.2432 8.98839V17.3282C99.2432 21.6834 102.023 24.6486 106.1 24.6486C110.178 24.6486 112.957 21.6834 112.957 17.3282V8.98839H112.772Z" fill="#00A2AA"/>
<path d="M120.927 8.80308C120.834 8.61775 120.741 8.52509 120.556 8.52509H118.61C118.425 8.52509 118.332 8.61775 118.239 8.80308L111.568 23.722C111.475 24 111.66 24.278 111.938 24.278H114.811C114.996 24.278 115.089 24.1853 115.181 24L116.386 21.3127C116.479 21.1274 116.571 21.0347 116.757 21.0347H122.595C122.78 21.0347 122.873 21.1274 122.965 21.3127L124.17 24C124.263 24.1853 124.355 24.278 124.541 24.278H127.32C127.598 24.278 127.784 24 127.691 23.722L120.927 8.80308ZM120.741 17.7915H118.61C118.332 17.7915 118.147 17.5135 118.239 17.2355L119.351 14.7336C119.537 14.3629 119.907 14.3629 120.093 14.7336L121.205 17.2355C121.205 17.5135 121.019 17.7915 120.741 17.7915Z" fill="#00A2AA"/>
<path d="M139.274 21.0347H132.231C132.046 21.0347 131.861 20.8494 131.861 20.6641V8.98839C131.861 8.80306 131.675 8.61774 131.49 8.61774H128.896C128.71 8.61774 128.525 8.80306 128.525 8.98839V23.9073C128.525 24.0926 128.71 24.278 128.896 24.278H139.367C139.552 24.278 139.737 24.0926 139.737 23.9073V21.4054C139.737 21.2201 139.552 21.0347 139.274 21.0347Z" fill="#00A2AA"/>
<path d="M143.537 8.52509H141.035C140.849 8.52509 140.664 8.71041 140.664 8.89574V23.8147C140.664 24 140.849 24.1853 141.035 24.1853H143.537C143.722 24.1853 143.907 24 143.907 23.8147V8.98841C144 8.71041 143.815 8.52509 143.537 8.52509Z" fill="#00A2AA"/>
<path d="M170.039 8.52509H166.888C166.795 8.52509 166.61 8.61775 166.517 8.71041L162.718 14.2703C162.533 14.5483 162.255 14.5483 162.069 14.2703L158.363 8.71041C158.27 8.61775 158.178 8.52509 157.992 8.52509H145.205C145.019 8.52509 144.834 8.71041 144.834 8.89574V11.3977C144.834 11.583 145.019 11.7683 145.205 11.7683H149.653C149.838 11.7683 150.023 11.9537 150.023 12.139V23.722C150.023 23.9073 150.209 24.0927 150.394 24.0927H152.896C153.081 24.0927 153.266 23.9073 153.266 23.722V12.3243C153.266 12.139 153.452 11.9537 153.637 11.9537H156.046C156.139 11.9537 156.324 12.0463 156.417 12.139L160.494 18.1622C160.494 18.2548 160.587 18.3475 160.587 18.3475V23.9073C160.587 24.0927 160.772 24.278 160.958 24.278H163.552C163.737 24.278 163.923 24.0927 163.923 23.9073V18.3475C163.923 18.2548 163.923 18.1622 164.015 18.0695L170.131 9.17373C170.502 8.89574 170.317 8.52509 170.039 8.52509Z" fill="#00A2AA"/>
<path d="M98.131 24.278L96.1851 23.0734C95.9998 22.9807 95.8144 22.9807 95.6291 23.166L95.2585 23.722C95.1658 23.9073 94.7025 24.278 94.2391 24.0927C94.1465 24.0927 94.0538 24 93.9612 24C93.7758 23.9073 93.7758 23.8147 93.7758 23.6293C96.3704 22.2394 98.2237 19.4595 98.2237 16.2162C98.2237 14.2703 97.5751 12.5096 96.4631 11.027C96.3704 10.9344 96.2778 10.8417 96.2778 10.749L96.1851 10.6564C96.1851 10.5637 96.0924 10.5637 96.0924 10.471C95.9998 10.3784 95.9998 10.3784 95.9071 10.2857C95.7218 10.1004 95.5364 9.91505 95.2585 9.72972C95.1658 9.63706 95.0731 9.54439 94.9805 9.54439C94.8878 9.45173 94.7025 9.35907 94.5171 9.2664C94.4245 9.17374 94.3318 9.17374 94.2391 9.08107C93.8685 8.89574 93.4978 8.71042 93.1272 8.52509C93.0345 8.52509 92.9418 8.43242 92.8492 8.43242C92.5712 8.43242 92.4785 8.33976 92.2932 8.33976C92.2005 8.33976 92.0152 8.2471 91.9225 8.2471C91.8299 8.2471 91.6446 8.15443 91.5519 8.15443C91.2739 8.06177 90.9959 8.06177 90.8106 8.06177C90.7179 8.06177 90.7179 8.06177 90.6253 8.06177C90.5326 8.06177 90.4399 8.06177 90.3473 8.06177C90.2546 8.06177 90.0693 8.06177 89.9766 8.06177H89.8839H89.7913C89.6986 8.06177 89.6059 8.06177 89.6059 8.06177C89.2353 8.06177 88.8646 8.15443 88.494 8.15443C87.0113 8.43242 85.7141 9.08107 84.6021 10.0077L84.5094 10.1004L84.4168 10.193C83.5828 10.9344 82.9341 11.7683 82.5635 12.7876C82.0075 13.8996 81.7295 15.1042 81.7295 16.4015C81.7295 19.5521 83.3974 22.2394 85.8994 23.722C85.992 23.8147 85.992 24 85.8994 24.0927C85.8994 24.1853 85.8067 24.1853 85.8067 24.278L85.5287 24.834C85.4361 25.0193 85.5287 25.2973 85.7141 25.39L87.7527 26.5946C87.938 26.6873 88.216 26.6873 88.3086 26.4093L88.5866 25.8533C88.772 25.5753 89.05 25.112 89.5133 25.2046C89.8839 25.2973 90.4399 25.6679 90.9032 26.0386C91.6446 26.5946 92.5712 27.3359 93.8685 27.6139C94.0538 27.6139 94.2392 27.6139 94.4245 27.6139C95.8144 27.6139 97.2971 26.8726 98.0384 25.5753L98.3164 25.0193C98.3164 24.6486 98.3164 24.4633 98.131 24.278ZM89.8839 21.2201C87.1967 21.2201 85.0654 18.9961 85.0654 16.3089C85.0654 13.6216 87.1967 11.3977 89.8839 11.3977C92.5712 11.3977 94.7025 13.6216 94.7025 16.3089C94.7025 18.9961 92.5712 21.2201 89.8839 21.2201Z" fill="#00A2AA"/>
<path d="M174.764 10.2857C174.764 11.305 174.023 12.0463 173.004 12.0463C171.984 12.0463 171.243 11.305 171.243 10.2857C171.243 9.2664 171.984 8.52509 173.004 8.52509C174.023 8.52509 174.764 9.35906 174.764 10.2857ZM174.394 10.2857C174.394 9.45173 173.745 8.80308 172.911 8.80308C172.077 8.80308 171.428 9.45173 171.428 10.2857C171.428 11.1197 172.077 11.7683 172.911 11.7683C173.838 11.7683 174.394 11.1197 174.394 10.2857ZM173.282 10.471L173.652 11.1197C173.652 11.2123 173.652 11.2123 173.56 11.2123H173.374C173.374 11.2123 173.282 11.2123 173.282 11.1197L172.911 10.471H172.633V11.1197C172.633 11.2123 172.633 11.2123 172.54 11.2123H172.355C172.262 11.2123 172.262 11.2123 172.262 11.1197V9.45173C172.262 9.35906 172.262 9.35906 172.355 9.35906H172.911C173.374 9.35906 173.56 9.54439 173.56 9.91505C173.652 10.2857 173.56 10.3784 173.282 10.471ZM173.004 10.2857C173.282 10.2857 173.374 10.193 173.374 10.0077C173.374 9.82238 173.282 9.72972 173.004 9.72972H172.726V10.3784H173.004V10.2857Z" fill="#00A2AA"/>
</g>
<defs>
<clipPath id="clip0">
<rect width="174.765" height="48" fill="white"/>
</clipPath>
</defs>
</svg>
